<svg width="150" height="44" xmlns="http://www.w3.org/2000/svg" fill="none">
 <defs>
  <clipPath id="clip0">
   <rect id="svg_1" fill="white" height="43.0987" width="150"/>
  </clipPath>
 </defs>
 <g>
  <title>Layer 1</title>
  <path id="svg_3" fill="#593CF7" d="m16.161,21.5507c0,2.1818 1.3039,4.0649 3.174,4.9117c0.2494,0.1117 0.5221,-0.1221 0.452,-0.3845c-0.3715,-1.4467 -0.5714,-2.9636 -0.5714,-4.5272c0,-1.5637 0.1999,-3.0779 0.5714,-4.5273c0.0675,-0.2649 -0.2052,-0.4987 -0.452,-0.3844c-1.8675,0.8441 -3.174,2.7273 -3.174,4.9117z"/>
  <path id="svg_4" fill="#593CF7" d="m10.774,21.5506c0,5.9403 4.8338,10.7741 10.7741,10.7741c0.1922,0 0.3818,-0.0052 0.5688,-0.0156c0.2623,-0.013 0.4,-0.3091 0.252,-0.5273c-0.4364,-0.639 -0.8312,-1.3065 -1.1845,-2c-0.0519,-0.1039 -0.1532,-0.1688 -0.2675,-0.1766c-4.1636,-0.3221 -7.4519,-3.813 -7.4519,-8.0572c0,-4.2441 3.2883,-7.735 7.4519,-8.0571c0.1143,-0.0078 0.2156,-0.0753 0.2675,-0.1766c0.3533,-0.6935 0.7481,-1.3611 1.1845,-2c0.148,-0.2156 0.0077,-0.5117 -0.252,-0.5273c-0.1896,-0.0104 -0.3792,-0.0156 -0.5688,-0.0156c-5.9403,0.0026 -10.7741,4.8364 -10.7741,10.7792z"/>
  <path id="svg_5" fill="#593CF7" d="m5.42856,22.7091c0.55065,7.8519 6.82074,14.239 14.65974,14.9377c2.3117,0.2051 4.5299,-0.0832 6.5714,-0.7663c0.2624,-0.0883 0.3117,-0.4285 0.0883,-0.5922c-0.6519,-0.4727 -1.2675,-0.987 -1.8519,-1.5402c-0.0805,-0.0754 -0.1922,-0.1065 -0.2987,-0.0806c-1.4571,0.3403 -3.0052,0.4468 -4.6026,0.2624c-6.4727,-0.7481 -11.55325,-6.1429 -11.89611,-12.652c-0.41039,-7.7558 5.78181,-14.19737 13.44931,-14.19737c1.0494,0 2.0702,0.12208 3.0494,0.35065c0.1065,0.02597 0.2182,-0.0052 0.2987,-0.08052c0.5818,-0.55325 1.2,-1.06753 1.8519,-1.54026c0.2234,-0.16104 0.1741,-0.5039 -0.0883,-0.59221c-1.6078,-0.53766 -3.3246,-0.83117 -5.1117,-0.83117c-9.2935,0 -16.78178,7.88828 -16.11944,17.32208z"/>
  <path id="svg_6" fill="#593CF7" d="m30.1117,38.3403c-2.9325,1.5013 -6.3039,2.2623 -9.8701,2.0181c-9.5013,-0.6493 -17.10653,-8.4415 -17.52991,-17.9558c-0.47792,-10.7818 8.15581,-19.70909 18.83891,-19.70909c3.0806,0 5.9897,0.74805 8.5611,2.06494c0.0857,0.04415 0.1844,0.04675 0.2727,0.01039c0.8156,-0.34286 1.6624,-0.62598 2.5325,-0.84676c0.2857,-0.07272 0.3428,-0.45454 0.0935,-0.61039c-3.7273,-2.35324 -8.2182,-3.5948 -13.013,-3.25714c-10.81818,0.76364 -19.46493,9.63117 -19.97402,20.46235c-0.57922,12.3506 9.30129,22.5818 21.52472,22.5818c4.2077,0 8.1376,-1.2156 11.4597,-3.3091c0.2519,-0.1584 0.1948,-0.5376 -0.0935,-0.613c-0.8701,-0.2208 -1.7169,-0.5065 -2.5325,-0.8467c-0.0857,-0.0364 -0.1844,-0.0312 -0.2701,0.0104z"/>
  <g stroke="null">
   <g stroke="#000" fill="#000" stroke-width="0.25mm" font-size="9pt" fill-rule="evenodd" stroke-linecap="round" id="svg_8">
    <path stroke="null" vector-effect="non-scaling-stroke" d="m40.48858,32.7188l-3.15725,0l0,-24.55642l4.42016,0l10.83991,20.41691l0,-20.41691l3.15725,0l0,24.55642l-4.34999,0l-10.91007,-20.27659l0,20.27659zm59.98783,-1.05242l-3.12217,1.47339l-3.05201,-6.66531a10.72975,10.72975 0 0 0 -0.90894,-1.60459q-0.87912,-1.2643 -2.00275,-1.93855q-1.52776,-0.91701 -3.80133,-1.03488a13.27696,13.27696 0 0 0 -0.68898,-0.01754l-0.52621,0l0,10.83991l-3.33266,0l0,-24.48626q1.85927,-0.1754 3.56068,-0.2631a65.93049,65.93049 0 0 1 2.21569,-0.07542a79.37583,79.37583 0 0 1 1.41515,-0.01228q4.49032,0 6.75302,1.82419a6.10894,6.10894 0 0 1 1.62423,1.94136q0.63847,1.23098 0.63847,2.75944a6.97402,6.97402 0 0 1 -0.22837,1.83121a5.14703,5.14703 0 0 1 -1.29763,2.29076q-1.52601,1.56109 -4.40262,2.33286a8.29867,8.29867 0 0 1 1.20291,0.6532a7.16591,7.16591 0 0 1 0.48096,0.3466q0.69074,0.54235 1.33482,1.42427a10.27511,10.27511 0 0 1 0.08595,0.11927q0.68407,0.96472 1.38568,2.50826l2.66613,5.75322zm34.23867,7.64757l1.15766,-2.73629a7.21327,7.21327 0 0 0 1.33903,0.83246a8.67789,8.67789 0 0 0 0.62549,0.27258q0.96787,0.37782 2.30094,0.43009a11.15142,11.15142 0 0 0 0.43535,0.00842a7.61284,7.61284 0 0 0 1.58599,-0.15541q1.01769,-0.2168 1.78946,-0.73599a4.41174,4.41174 0 0 0 0.53603,-0.42412a3.98235,3.98235 0 0 0 1.01979,-1.57652q0.40097,-1.0875 0.40097,-2.61561l0,-2.24516q-0.70161,0.84193 -2.01713,1.59617q-1.31552,0.75423 -3.13971,0.75423q-2.06976,0 -3.92903,-1.06996a7.80052,7.80052 0 0 1 -2.55808,-2.39881a9.62507,9.62507 0 0 1 -0.45885,-0.7409a8.83365,8.83365 0 0 1 -0.95174,-2.67455a12.28979,12.28979 0 0 1 -0.20592,-2.3069a11.24684,11.24684 0 0 1 0.32169,-2.73909a9.36021,9.36021 0 0 1 0.81843,-2.13711a9.01782,9.01782 0 0 1 2.12729,-2.67419a8.57651,8.57651 0 0 1 0.94227,-0.69354q1.92943,-1.22782 4.24475,-1.22782a7.84613,7.84613 0 0 1 1.69089,0.17575a6.56533,6.56533 0 0 1 1.11556,0.35046a9.01747,9.01747 0 0 1 1.34289,0.69039a7.36623,7.36623 0 0 1 0.83211,0.6076l0,-1.40322l2.87661,0l0,17.82095q0,3.01693 -1.05242,4.91128q-1.05242,1.89435 -2.92923,2.77137a9.05465,9.05465 0 0 1 -2.31672,0.70898a12.36346,12.36346 0 0 1 -2.08589,0.16804q-1.61371,0 -3.13971,-0.38589a9.55315,9.55315 0 0 1 -1.85927,-0.67285a8.25026,8.25026 0 0 1 -0.85947,-0.48481zm-18.4524,-6.59515l-3.15725,0l0,-18.24191l3.05201,0l0,3.05201q0.98226,-1.47339 2.50826,-2.47318a6.07456,6.07456 0 0 1 2.49283,-0.92087a7.93839,7.93839 0 0 1 1.13801,-0.07893a8.14747,8.14747 0 0 1 1.77683,0.18137q1.78701,0.39957 2.83627,1.67791q1.44707,1.7628 1.5218,4.59837a11.84461,11.84461 0 0 1 0.00421,0.31292l0,11.89232l-3.15725,0l0,-11.54152a6.75828,6.75828 0 0 0 -0.11998,-1.31237q-0.154,-0.77704 -0.50481,-1.39024a3.84694,3.84694 0 0 0 -0.30485,-0.45464a3.00956,3.00956 0 0 0 -2.20201,-1.1766a4.23107,4.23107 0 0 0 -0.37641,-0.01614a4.60328,4.60328 0 0 0 -2.40267,0.68898a6.08754,6.08754 0 0 0 -0.64934,0.45114q-1.4383,1.14012 -2.45564,2.68367l0,12.06773zm-51.53341,-0.78931a8.61545,8.61545 0 0 0 1.61301,0.73283q1.42252,0.47745 3.05271,0.47745q2.59596,0 4.64818,-1.19274q2.05222,-1.19274 3.24496,-3.3502a9.21041,9.21041 0 0 0 0.93069,-2.50546a11.99195,11.99195 0 0 0 0.26205,-2.56369a12.11754,12.11754 0 0 0 -0.17014,-2.07291a9.04904,9.04904 0 0 0 -1.04014,-2.96115q-1.21028,-2.12238 -3.2625,-3.28004a8.71683,8.71683 0 0 0 -1.62809,-0.71108a9.73066,9.73066 0 0 0 -2.98501,-0.44658a10.989,10.989 0 0 0 -0.55427,0.01368a9.18024,9.18024 0 0 0 -4.07637,1.14398q-2.06976,1.15766 -3.2625,3.29758a9.12903,9.12903 0 0 0 -0.96437,2.66262a12.28032,12.28032 0 0 0 -0.22837,2.42407a12.21507,12.21507 0 0 0 0.09296,1.52706a9.62998,9.62998 0 0 0 1.08224,3.43685q1.1752,2.15746 3.24496,3.36774zm42.76326,0.78931l-3.15725,0l0,-18.24191l3.15725,0l0,18.24191zm-38.09754,-2.38548q2.77137,0 4.31491,-1.87681a6.59586,6.59586 0 0 0 1.33973,-2.83802a9.5086,9.5086 0 0 0 0.20382,-2.02064q0,-1.82419 -0.77177,-3.3502a6.73477,6.73477 0 0 0 -1.46356,-1.95364a6.37415,6.37415 0 0 0 -0.62373,-0.502q-1.31552,-0.92964 -2.99939,-0.92964a6.75267,6.75267 0 0 0 -1.83331,0.23539a4.92426,4.92426 0 0 0 -2.4816,1.5888a6.27171,6.27171 0 0 0 -1.28886,2.58649q-0.25469,1.02891 -0.25469,2.25463q0,1.82419 0.77177,3.38528a6.81862,6.81862 0 0 0 1.23835,1.76806a6.18366,6.18366 0 0 0 0.84895,0.72266q1.31552,0.92964 2.99939,0.92964zm76.40555,-2.5258l0,-9.54192q-0.75985,-0.55252 -1.82524,-1.00331a12.63533,12.63533 0 0 0 -0.03403,-0.01403a5.70025,5.70025 0 0 0 -1.33447,-0.36905a7.76509,7.76509 0 0 0 -1.19134,-0.087q-1.4383,0 -2.70121,0.77177q-1.2629,0.77177 -2.05222,2.22762q-0.78931,1.45585 -0.78931,3.56068a8.5316,8.5316 0 0 0 0.16769,1.73158a6.42361,6.42361 0 0 0 0.62163,1.7414a6.51657,6.51657 0 0 0 1.0212,1.42918a5.54344,5.54344 0 0 0 1.03102,0.85106q1.2629,0.80685 2.73629,0.80685a5.35891,5.35891 0 0 0 1.60599,-0.23469a4.77307,4.77307 0 0 0 0.91981,-0.39676a7.31606,7.31606 0 0 0 1.04575,-0.70722a5.7213,5.7213 0 0 0 0.77844,-0.76616zm-59.42654,-16.97901l0,8.24394l3.85887,0a9.2925,9.2925 0 0 0 1.72702,-0.15155q1.37832,-0.26065 2.37741,-0.97103q1.57863,-1.12258 1.57863,-3.22742a3.44176,3.44176 0 0 0 -1.14819,-2.61877a4.6559,4.6559 0 0 0 -0.3252,-0.27538a4.88427,4.88427 0 0 0 -1.53092,-0.77949q-0.6767,-0.21434 -1.49408,-0.30134a11.20615,11.20615 0 0 0 -1.18467,-0.05929q-1.11346,0 -2.01293,0.03052a41.7368,41.7368 0 0 0 -0.12699,0.00456q-0.94718,0.03508 -1.71895,0.10524zm18.00933,-0.10945a2.09536,2.09536 0 0 0 1.53057,0.63566a2.86784,2.86784 0 0 0 0.52481,-0.04596a1.981,1.981 0 0 0 1.0889,-0.56795q0.59637,-0.61391 0.59637,-1.59617a2.54685,2.54685 0 0 0 0,-0.02842a2.12588,2.12588 0 0 0 -0.64899,-1.53267a2.59421,2.59421 0 0 0 -0.02035,-0.02035a2.12553,2.12553 0 0 0 -1.54074,-0.62864a2.89906,2.89906 0 0 0 -0.58093,0.05508a1.98591,1.98591 0 0 0 -1.03277,0.54129a1.9603,1.9603 0 0 0 -0.51604,0.92332a2.80189,2.80189 0 0 0 -0.08033,0.69039a2.10203,2.10203 0 0 0 0.1726,0.84825a2.3304,2.3304 0 0 0 0.47639,0.6953a2.61912,2.61912 0 0 0 0.03052,0.03087z"/>
   </g>
  </g>
 </g>
</svg>